<svg width="92" height="83" viewBox="0 0 92 83" fill="none" xmlns="http://www.w3.org/2000/svg">
<path d="M84.3287 64.5168C81.3287 65.0168 74.8287 64.0168 74.8287 64.0168V28.5168H70.3287V63.5168C70.3287 63.5168 68.3287 66.5168 61.8287 66.5168C55.3287 66.5168 53.8287 65.5168 53.8287 64.5168V24.5168H49.8287C49.8287 24.5168 49.7207 61.0168 49.8287 62.5168C49.9366 64.0169 49.2207 64.5168 42.2207 64.5168C35.2207 64.5169 34.3287 62.5168 34.3287 58.0168V22.5168V17.0168H30.3287V22.5168V59.0168C30.3287 62.0169 26.7343 63.8183 23.3287 64.5168C21.7984 64.8307 20.8492 64.8746 19.3287 64.5168C15.8342 63.6946 13.8281 63.5168 12.8287 58.0168C11.8292 52.5168 9.32866 24.5168 9.32866 24.5168C9.32866 24.5168 8.37994 19.1978 9.32866 16.0168C10.9071 10.7244 13.9299 7.18118 19.3287 6.01683C21.4281 5.56406 24.8281 6.01683 24.8281 6.01683C24.8281 6.01683 26.7207 6.51683 29.2207 6.01683C31.7207 5.51684 32.2207 0.871084 40.7207 0.516834C49.2207 0.162585 48.7207 5.51678 51.7207 5.51678C51.7207 5.51678 58.2207 5.01678 62.7207 5.51678C67.2207 6.01678 71.3281 10.0168 72.8287 10.5168C74.3292 11.0168 74.3281 10.5168 78.8287 10.5168C83.3292 10.5168 90.3291 13.5168 90.3287 22.5168C90.3282 31.5168 90.8287 52.5168 90.3287 56.5168C89.8287 60.5168 87.3287 64.0168 84.3287 64.5168Z" fill="black"/>
<path d="M3.82866 77.5168C-1.17503 72.726 -0.429489 52.5815 5.32866 33.5168L9.32866 61.0168C11.3287 66.5168 16.0906 68.1611 17.8287 68.5168C20.6815 69.1008 24.9953 68.1835 26.8287 67.5168C29.3317 66.2591 31.3287 63.0168 32.8287 63.5168C34.3287 64.0168 37.2686 68.2953 39.8287 68.5168C41.9705 68.2121 43.189 68.1368 45.3287 68.5168C46.7539 69.9204 47.2678 70.8168 47.8287 72.5168C48.4953 74.8502 49.2287 79.9168 46.8287 81.5168C44.4287 83.1168 39.162 82.1835 36.8287 81.5168C30.7651 79.7868 19.757 77.9051 14.3287 79.5168C7.38401 81.5788 3.66199 77.8502 3.82866 77.5168Z" fill="black"/>
<path d="M84.3287 64.5168C81.3287 65.0168 74.8287 64.0168 74.8287 64.0168V28.5168H70.3287V63.5168C70.3287 63.5168 68.3287 66.5168 61.8287 66.5168C55.3287 66.5168 53.8287 65.5168 53.8287 64.5168V24.5168H49.8287C49.8287 24.5168 49.7207 61.0168 49.8287 62.5168C49.9366 64.0169 49.2207 64.5168 42.2207 64.5168C35.2207 64.5169 34.3287 62.5168 34.3287 58.0168V22.5168V17.0168H30.3287V22.5168V59.0168C30.3287 62.0169 26.7343 63.8183 23.3287 64.5168C21.7984 64.8307 20.8492 64.8746 19.3287 64.5168C15.8342 63.6946 13.8281 63.5168 12.8287 58.0168C11.8292 52.5168 9.32866 24.5168 9.32866 24.5168C9.32866 24.5168 8.37994 19.1978 9.32866 16.0168C10.9071 10.7244 13.9299 7.18118 19.3287 6.01683C21.4281 5.56406 24.8281 6.01683 24.8281 6.01683C24.8281 6.01683 26.7207 6.51683 29.2207 6.01683C31.7207 5.51684 32.2207 0.871084 40.7207 0.516834C49.2207 0.162585 48.7207 5.51678 51.7207 5.51678C51.7207 5.51678 58.2207 5.01678 62.7207 5.51678C67.2207 6.01678 71.3281 10.0168 72.8287 10.5168C74.3292 11.0168 74.3281 10.5168 78.8287 10.5168C83.3292 10.5168 90.3291 13.5168 90.3287 22.5168C90.3282 31.5168 90.8287 52.5168 90.3287 56.5168C89.8287 60.5168 87.3287 64.0168 84.3287 64.5168Z" stroke="black"/>
<path d="M3.82866 77.5168C-1.17503 72.726 -0.429489 52.5815 5.32866 33.5168L9.32866 61.0168C11.3287 66.5168 16.0906 68.1611 17.8287 68.5168C20.6815 69.1008 24.9953 68.1835 26.8287 67.5168C29.3317 66.2591 31.3287 63.0168 32.8287 63.5168C34.3287 64.0168 37.2686 68.2953 39.8287 68.5168C41.9705 68.2121 43.189 68.1368 45.3287 68.5168C46.7539 69.9204 47.2678 70.8168 47.8287 72.5168C48.4953 74.8502 49.2287 79.9168 46.8287 81.5168C44.4287 83.1168 39.162 82.1835 36.8287 81.5168C30.7651 79.7868 19.757 77.9051 14.3287 79.5168C7.38401 81.5788 3.66199 77.8502 3.82866 77.5168Z" stroke="black"/>
<path d="M23.3907 32.0118L23.6457 31.4268C24.5157 31.4468 25.2307 31.5818 25.7907 31.8318C26.3607 32.0718 26.7857 32.4118 27.0657 32.8518C27.3457 33.2818 27.4857 33.7818 27.4857 34.3518C27.4857 34.9618 27.3457 35.5068 27.0657 35.9868C26.7857 36.4568 26.3657 36.8318 25.8057 37.1118C25.2557 37.3818 24.5657 37.5168 23.7357 37.5168H15.4257L16.2957 31.7418L15.4257 26.2668H23.4357C24.4757 26.2668 25.2857 26.5118 25.8657 27.0018C26.4457 27.4818 26.7357 28.1518 26.7357 29.0118C26.7357 29.4818 26.6257 29.9318 26.4057 30.3618C26.1857 30.7918 25.8307 31.1568 25.3407 31.4568C24.8607 31.7468 24.2107 31.9318 23.3907 32.0118ZM18.5007 36.7968L17.3007 35.3418H22.8957C23.3457 35.3418 23.6957 35.2318 23.9457 35.0118C24.1957 34.7918 24.3207 34.4868 24.3207 34.0968C24.3207 33.7068 24.1857 33.3968 23.9157 33.1668C23.6457 32.9268 23.2457 32.8068 22.7157 32.8068H18.0957V30.6768H22.2957C22.6557 30.6768 22.9557 30.5718 23.1957 30.3618C23.4457 30.1418 23.5707 29.8468 23.5707 29.4768C23.5707 29.1768 23.4657 28.9318 23.2557 28.7418C23.0457 28.5418 22.7457 28.4418 22.3557 28.4418H17.3157L18.5007 26.9868L19.2657 31.7418L18.5007 36.7968ZM38.6579 31.1868H42.7529C43.2529 31.1868 43.6429 31.0718 43.9229 30.8418C44.2029 30.6118 44.3429 30.2918 44.3429 29.8818C44.3429 29.4618 44.2029 29.1418 43.9229 28.9218C43.6429 28.6918 43.2529 28.5768 42.7529 28.5768H38.2229L39.6179 27.0918V37.5168H36.5129V26.2668H43.1879C44.0479 26.2668 44.7979 26.4218 45.4379 26.7318C46.0779 27.0318 46.5779 27.4518 46.9379 27.9918C47.2979 28.5218 47.4779 29.1518 47.4779 29.8818C47.4779 30.5918 47.2979 31.2168 46.9379 31.7568C46.5779 32.2968 46.0779 32.7168 45.4379 33.0168C44.7979 33.3168 44.0479 33.4668 43.1879 33.4668H38.6579V31.1868ZM40.3379 32.2518H43.8329L47.8679 37.5168H44.2679L40.3379 32.2518ZM58.742 35.3568V32.8518H66.497V35.3568H58.742ZM64.727 26.2668L69.842 37.5168H66.527L62.237 27.5868H63.137L58.832 37.5168H55.517L60.632 26.2668H64.727ZM80.1307 27.6318H83.2507V37.5168H80.1307V27.6318ZM75.8407 26.2668H87.5407V29.0268H75.8407V26.2668Z" fill="white"/>
</svg>
